@startuml

!pragma layout smetana

class Member{
e-mail : String
}

class BoardMember

class Event{
date : Date
description : String
assign(l : Location) : void
}

class Conference{
max_attendees : Integer
}

class BoardMeeting

class Location{
description : String
address : String
}

class Person{
name : String
}

class AAUOC{
newLocation(l : Location) : void
newEvent(e : Event) : void
newPerson(p : Person) : void
informEvent(e : Event) : void
register(m : Member,e : Event) : void
}

Event <|-- Conference
Event <|-- BoardMeeting

Person <|-- Member
Member <|-- BoardMember

Location "1" -  "0..*"Event: isLocated_in

AAUOC o-- "0..*"Location
AAUOC o-- "0..*"Event
AAUOC o-- "0..*"Person

BoardMeeting"0..*" - "0..*"BoardMember: attends_to

Event "0..*" - "0..*"Member: attends_to

Conference"0..*" --- "0..*"Person: attends_to

@enduml